<?xml version="1.0" encoding="UTF-8" standalone="no"?>
<!DOCTYPE svg PUBLIC "-//W3C//DTD SVG 1.1//EN"
 "http://www.w3.org/Graphics/SVG/1.1/DTD/svg11.dtd">
<!-- Generated by graphviz version 8.0.3 (20230416.2022)
 -->
<!-- Pages: 1 -->
<svg width="1091pt" height="607pt"
 viewBox="0.00 0.00 1091.00 607.00" xmlns="http://www.w3.org/2000/svg" xmlns:xlink="http://www.w3.org/1999/xlink">
<g id="graph0" class="graph" transform="scale(0.532455 0.532455) rotate(0) translate(4 1136)">
<polygon fill="white" stroke="none" points="-4,4 -4,-1136 2045,-1136 2045,4 -4,4"/>
<!-- 2520406401328 -->
<g id="node1" class="node">
<title>2520406401328</title>
<polygon fill="#caff70" stroke="black" points="289,-31 224,-31 224,0 289,0 289,-31"/>
<text text-anchor="middle" x="256.5" y="-7" font-family="monospace" font-size="10.00"> (32, 5)</text>
</g>
<!-- 2522156077648 -->
<g id="node2" class="node">
<title>2522156077648</title>
<polygon fill="lightgrey" stroke="black" points="414,-130 265,-130 265,-67 414,-67 414,-130"/>
<text text-anchor="middle" x="339.5" y="-118" font-family="monospace" font-size="10.00">LogSoftmaxBackward0</text>
<text text-anchor="middle" x="339.5" y="-107" font-family="monospace" font-size="10.00">&#45;&#45;&#45;&#45;&#45;&#45;&#45;&#45;&#45;&#45;&#45;&#45;&#45;&#45;&#45;&#45;&#45;&#45;&#45;&#45;&#45;&#45;</text>
<text text-anchor="middle" x="339.5" y="-96" font-family="monospace" font-size="10.00">dim &#160;&#160;: &#160;&#160;&#160;&#160;&#160;&#160;&#160;&#160;&#160;&#160;&#160;&#160;&#160;1</text>
<text text-anchor="middle" x="339.5" y="-85" font-family="monospace" font-size="10.00">result: [saved tensor]</text>
<text text-anchor="middle" x="339.5" y="-74" font-family="monospace" font-size="10.00">self &#160;: [saved tensor]</text>
</g>
<!-- 2522156077648&#45;&gt;2520406401328 -->
<g id="edge50" class="edge">
<title>2522156077648&#45;&gt;2520406401328</title>
<path fill="none" stroke="black" d="M308.12,-66.88C298.56,-57.55 288.24,-47.47 279.35,-38.8"/>
<polygon fill="black" stroke="black" points="282.26,-36.78 272.66,-32.3 277.38,-41.79 282.26,-36.78"/>
</g>
<!-- 2521882467680 -->
<g id="node3" class="node">
<title>2521882467680</title>
<polygon fill="orange" stroke="black" points="372,-30.5 307,-30.5 307,-0.5 372,-0.5 372,-30.5"/>
<text text-anchor="middle" x="339.5" y="-18.5" font-family="monospace" font-size="10.00">result</text>
<text text-anchor="middle" x="339.5" y="-7.5" font-family="monospace" font-size="10.00"> (32, 5)</text>
</g>
<!-- 2522156077648&#45;&gt;2521882467680 -->
<g id="edge1" class="edge">
<title>2522156077648&#45;&gt;2521882467680</title>
<path fill="none" stroke="black" d="M339.5,-66.88C339.5,-54.51 339.5,-40.84 339.5,-30.86"/>
</g>
<!-- 2520406404768 -->
<g id="node4" class="node">
<title>2520406404768</title>
<polygon fill="orange" stroke="black" points="455,-30.5 390,-30.5 390,-0.5 455,-0.5 455,-30.5"/>
<text text-anchor="middle" x="422.5" y="-18.5" font-family="monospace" font-size="10.00">self</text>
<text text-anchor="middle" x="422.5" y="-7.5" font-family="monospace" font-size="10.00"> (32, 5)</text>
</g>
<!-- 2522156077648&#45;&gt;2520406404768 -->
<g id="edge2" class="edge">
<title>2522156077648&#45;&gt;2520406404768</title>
<path fill="none" stroke="black" d="M370.88,-66.88C383.55,-54.51 397.56,-40.84 407.78,-30.86"/>
</g>
<!-- 2522156077888 -->
<g id="node5" class="node">
<title>2522156077888</title>
<polygon fill="lightgrey" stroke="black" points="563,-284 378,-284 378,-166 563,-166 563,-284"/>
<text text-anchor="middle" x="470.5" y="-272" font-family="monospace" font-size="10.00">AddmmBackward0</text>
<text text-anchor="middle" x="470.5" y="-261" font-family="monospace" font-size="10.00">&#45;&#45;&#45;&#45;&#45;&#45;&#45;&#45;&#45;&#45;&#45;&#45;&#45;&#45;&#45;&#45;&#45;&#45;&#45;&#45;&#45;&#45;&#45;&#45;&#45;&#45;&#45;&#45;</text>
<text text-anchor="middle" x="470.5" y="-250" font-family="monospace" font-size="10.00">alpha &#160;&#160;&#160;&#160;&#160;&#160;: &#160;&#160;&#160;&#160;&#160;&#160;&#160;&#160;&#160;&#160;&#160;&#160;&#160;1</text>
<text text-anchor="middle" x="470.5" y="-239" font-family="monospace" font-size="10.00">beta &#160;&#160;&#160;&#160;&#160;&#160;&#160;: &#160;&#160;&#160;&#160;&#160;&#160;&#160;&#160;&#160;&#160;&#160;&#160;&#160;1</text>
<text text-anchor="middle" x="470.5" y="-228" font-family="monospace" font-size="10.00">mat1 &#160;&#160;&#160;&#160;&#160;&#160;&#160;: [saved tensor]</text>
<text text-anchor="middle" x="470.5" y="-217" font-family="monospace" font-size="10.00">mat1_sizes &#160;: &#160;&#160;&#160;&#160;&#160;(32, 200)</text>
<text text-anchor="middle" x="470.5" y="-206" font-family="monospace" font-size="10.00">mat1_strides: &#160;&#160;&#160;&#160;&#160;&#160;(200, 1)</text>
<text text-anchor="middle" x="470.5" y="-195" font-family="monospace" font-size="10.00">mat2 &#160;&#160;&#160;&#160;&#160;&#160;&#160;: [saved tensor]</text>
<text text-anchor="middle" x="470.5" y="-184" font-family="monospace" font-size="10.00">mat2_sizes &#160;: &#160;&#160;&#160;&#160;&#160;&#160;(200, 5)</text>
<text text-anchor="middle" x="470.5" y="-173" font-family="monospace" font-size="10.00">mat2_strides: &#160;&#160;&#160;&#160;&#160;&#160;(1, 200)</text>
</g>
<!-- 2522156077888&#45;&gt;2522156077648 -->
<g id="edge3" class="edge">
<title>2522156077888&#45;&gt;2522156077648</title>
<path fill="none" stroke="black" d="M409.22,-165.76C399.23,-156.26 389.1,-146.64 379.78,-137.79"/>
<polygon fill="black" stroke="black" points="382.49,-135.57 372.83,-131.22 377.66,-140.65 382.49,-135.57"/>
</g>
<!-- 2520406401728 -->
<g id="node6" class="node">
<title>2520406401728</title>
<polygon fill="orange" stroke="black" points="509,-113.5 432,-113.5 432,-83.5 509,-83.5 509,-113.5"/>
<text text-anchor="middle" x="470.5" y="-101.5" font-family="monospace" font-size="10.00">mat1</text>
<text text-anchor="middle" x="470.5" y="-90.5" font-family="monospace" font-size="10.00"> (32, 200)</text>
</g>
<!-- 2522156077888&#45;&gt;2520406401728 -->
<g id="edge4" class="edge">
<title>2522156077888&#45;&gt;2520406401728</title>
<path fill="none" stroke="black" d="M470.5,-165.76C470.5,-146.52 470.5,-126.77 470.5,-113.9"/>
</g>
<!-- 2521882375488 -->
<g id="node7" class="node">
<title>2521882375488</title>
<polygon fill="orange" stroke="black" points="598,-113.5 527,-113.5 527,-83.5 598,-83.5 598,-113.5"/>
<text text-anchor="middle" x="562.5" y="-101.5" font-family="monospace" font-size="10.00">mat2</text>
<text text-anchor="middle" x="562.5" y="-90.5" font-family="monospace" font-size="10.00"> (200, 5)</text>
</g>
<!-- 2522156077888&#45;&gt;2521882375488 -->
<g id="edge5" class="edge">
<title>2522156077888&#45;&gt;2521882375488</title>
<path fill="none" stroke="black" d="M513.54,-165.76C527.75,-146.52 542.35,-126.77 551.86,-113.9"/>
</g>
<!-- 2522156080480 -->
<g id="node8" class="node">
<title>2522156080480</title>
<polygon fill="lightgrey" stroke="black" points="378,-372 277,-372 277,-353 378,-353 378,-372"/>
<text text-anchor="middle" x="327.5" y="-360" font-family="monospace" font-size="10.00">AccumulateGrad</text>
</g>
<!-- 2522156080480&#45;&gt;2522156077888 -->
<g id="edge6" class="edge">
<title>2522156080480&#45;&gt;2522156077888</title>
<path fill="none" stroke="black" d="M336.88,-352.61C350.23,-339.96 375.89,-315.65 401.19,-291.68"/>
<polygon fill="black" stroke="black" points="403.16,-294.68 408.01,-285.26 398.35,-289.6 403.16,-294.68"/>
</g>
<!-- 2520406490064 -->
<g id="node9" class="node">
<title>2520406490064</title>
<polygon fill="lightblue" stroke="black" points="354.5,-488 300.5,-488 300.5,-457 354.5,-457 354.5,-488"/>
<text text-anchor="middle" x="327.5" y="-464" font-family="monospace" font-size="10.00"> (5)</text>
</g>
<!-- 2520406490064&#45;&gt;2522156080480 -->
<g id="edge7" class="edge">
<title>2520406490064&#45;&gt;2522156080480</title>
<path fill="none" stroke="black" d="M327.5,-456.93C327.5,-437.97 327.5,-404.74 327.5,-383.45"/>
<polygon fill="black" stroke="black" points="331,-383.49 327.5,-373.49 324,-383.49 331,-383.49"/>
</g>
<!-- 2522156077840 -->
<g id="node10" class="node">
<title>2522156077840</title>
<polygon fill="lightgrey" stroke="black" points="545,-405 396,-405 396,-320 545,-320 545,-405"/>
<text text-anchor="middle" x="470.5" y="-393" font-family="monospace" font-size="10.00">SliceBackward0</text>
<text text-anchor="middle" x="470.5" y="-382" font-family="monospace" font-size="10.00">&#45;&#45;&#45;&#45;&#45;&#45;&#45;&#45;&#45;&#45;&#45;&#45;&#45;&#45;&#45;&#45;&#45;&#45;&#45;&#45;&#45;&#45;</text>
<text text-anchor="middle" x="470.5" y="-371" font-family="monospace" font-size="10.00">dim &#160;&#160;&#160;&#160;&#160;&#160;: &#160;&#160;&#160;&#160;&#160;&#160;&#160;&#160;&#160;1</text>
<text text-anchor="middle" x="470.5" y="-360" font-family="monospace" font-size="10.00">end &#160;&#160;&#160;&#160;&#160;&#160;: 4294967295</text>
<text text-anchor="middle" x="470.5" y="-349" font-family="monospace" font-size="10.00">self_sizes: &#160;(32, 200)</text>
<text text-anchor="middle" x="470.5" y="-338" font-family="monospace" font-size="10.00">start &#160;&#160;&#160;&#160;: &#160;&#160;&#160;&#160;&#160;&#160;&#160;&#160;&#160;0</text>
<text text-anchor="middle" x="470.5" y="-327" font-family="monospace" font-size="10.00">step &#160;&#160;&#160;&#160;&#160;: &#160;&#160;&#160;&#160;&#160;&#160;&#160;&#160;&#160;1</text>
</g>
<!-- 2522156077840&#45;&gt;2522156077888 -->
<g id="edge8" class="edge">
<title>2522156077840&#45;&gt;2522156077888</title>
<path fill="none" stroke="black" d="M470.5,-319.74C470.5,-311.95 470.5,-303.63 470.5,-295.27"/>
<polygon fill="black" stroke="black" points="474,-295.31 470.5,-285.31 467,-295.31 474,-295.31"/>
</g>
<!-- 2522156079616 -->
<g id="node11" class="node">
<title>2522156079616</title>
<polygon fill="lightgrey" stroke="black" points="551,-504 378,-504 378,-441 551,-441 551,-504"/>
<text text-anchor="middle" x="464.5" y="-492" font-family="monospace" font-size="10.00">SelectBackward0</text>
<text text-anchor="middle" x="464.5" y="-481" font-family="monospace" font-size="10.00">&#45;&#45;&#45;&#45;&#45;&#45;&#45;&#45;&#45;&#45;&#45;&#45;&#45;&#45;&#45;&#45;&#45;&#45;&#45;&#45;&#45;&#45;&#45;&#45;&#45;&#45;</text>
<text text-anchor="middle" x="464.5" y="-470" font-family="monospace" font-size="10.00">dim &#160;&#160;&#160;&#160;&#160;&#160;: &#160;&#160;&#160;&#160;&#160;&#160;&#160;&#160;&#160;&#160;&#160;&#160;&#160;1</text>
<text text-anchor="middle" x="464.5" y="-459" font-family="monospace" font-size="10.00">index &#160;&#160;&#160;&#160;: &#160;&#160;&#160;&#160;4294967295</text>
<text text-anchor="middle" x="464.5" y="-448" font-family="monospace" font-size="10.00">self_sizes: (32, 188, 200)</text>
</g>
<!-- 2522156079616&#45;&gt;2522156077840 -->
<g id="edge9" class="edge">
<title>2522156079616&#45;&gt;2522156077840</title>
<path fill="none" stroke="black" d="M466.22,-440.55C466.64,-432.92 467.11,-424.54 467.57,-416.2"/>
<polygon fill="black" stroke="black" points="471.12,-416.5 468.18,-406.32 464.13,-416.11 471.12,-416.5"/>
</g>
<!-- 2522156077456 -->
<g id="node12" class="node">
<title>2522156077456</title>
<polygon fill="lightgrey" stroke="black" points="173,-625 0,-625 0,-540 173,-540 173,-625"/>
<text text-anchor="middle" x="86.5" y="-613" font-family="monospace" font-size="10.00">SliceBackward0</text>
<text text-anchor="middle" x="86.5" y="-602" font-family="monospace" font-size="10.00">&#45;&#45;&#45;&#45;&#45;&#45;&#45;&#45;&#45;&#45;&#45;&#45;&#45;&#45;&#45;&#45;&#45;&#45;&#45;&#45;&#45;&#45;&#45;&#45;&#45;&#45;</text>
<text text-anchor="middle" x="86.5" y="-591" font-family="monospace" font-size="10.00">dim &#160;&#160;&#160;&#160;&#160;&#160;: &#160;&#160;&#160;&#160;&#160;&#160;&#160;&#160;&#160;&#160;&#160;&#160;&#160;0</text>
<text text-anchor="middle" x="86.5" y="-580" font-family="monospace" font-size="10.00">end &#160;&#160;&#160;&#160;&#160;&#160;: &#160;&#160;&#160;&#160;4294967295</text>
<text text-anchor="middle" x="86.5" y="-569" font-family="monospace" font-size="10.00">self_sizes: (32, 188, 200)</text>
<text text-anchor="middle" x="86.5" y="-558" font-family="monospace" font-size="10.00">start &#160;&#160;&#160;&#160;: &#160;&#160;&#160;&#160;&#160;&#160;&#160;&#160;&#160;&#160;&#160;&#160;&#160;0</text>
<text text-anchor="middle" x="86.5" y="-547" font-family="monospace" font-size="10.00">step &#160;&#160;&#160;&#160;&#160;: &#160;&#160;&#160;&#160;&#160;&#160;&#160;&#160;&#160;&#160;&#160;&#160;&#160;1</text>
</g>
<!-- 2522156077456&#45;&gt;2522156079616 -->
<g id="edge10" class="edge">
<title>2522156077456&#45;&gt;2522156079616</title>
<path fill="none" stroke="black" d="M173.45,-542.65C176.15,-541.72 178.84,-540.83 181.5,-540 260.19,-515.35 283.49,-523.94 363.5,-504 364.66,-503.71 365.82,-503.42 366.98,-503.12"/>
<polygon fill="black" stroke="black" points="367.82,-506.26 376.6,-500.33 366.04,-499.49 367.82,-506.26"/>
</g>
<!-- 2522156080048 -->
<g id="node13" class="node">
<title>2522156080048</title>
<polygon fill="lightgrey" stroke="black" points="1326,-889 1123,-889 1123,-661 1326,-661 1326,-889"/>
<text text-anchor="middle" x="1224.5" y="-877" font-family="monospace" font-size="10.00">CudnnRnnBackward0</text>
<text text-anchor="middle" x="1224.5" y="-866" font-family="monospace" font-size="10.00">&#45;&#45;&#45;&#45;&#45;&#45;&#45;&#45;&#45;&#45;&#45;&#45;&#45;&#45;&#45;&#45;&#45;&#45;&#45;&#45;&#45;&#45;&#45;&#45;&#45;&#45;&#45;&#45;&#45;&#45;&#45;</text>
<text text-anchor="middle" x="1224.5" y="-855" font-family="monospace" font-size="10.00">batch_first &#160;&#160;: &#160;&#160;&#160;&#160;&#160;&#160;&#160;&#160;&#160;&#160;&#160;True</text>
<text text-anchor="middle" x="1224.5" y="-844" font-family="monospace" font-size="10.00">batch_sizes &#160;&#160;: &#160;&#160;&#160;&#160;&#160;&#160;&#160;&#160;&#160;&#160;&#160;&#160;&#160;()</text>
<text text-anchor="middle" x="1224.5" y="-833" font-family="monospace" font-size="10.00">bidirectional : &#160;&#160;&#160;&#160;&#160;&#160;&#160;&#160;&#160;&#160;&#160;True</text>
<text text-anchor="middle" x="1224.5" y="-822" font-family="monospace" font-size="10.00">cx &#160;&#160;&#160;&#160;&#160;&#160;&#160;&#160;&#160;&#160;&#160;: &#160;[saved tensor]</text>
<text text-anchor="middle" x="1224.5" y="-811" font-family="monospace" font-size="10.00">dropout &#160;&#160;&#160;&#160;&#160;&#160;: &#160;&#160;&#160;&#160;&#160;&#160;&#160;&#160;&#160;&#160;&#160;&#160;0.5</text>
<text text-anchor="middle" x="1224.5" y="-800" font-family="monospace" font-size="10.00">dropout_state : &#160;[saved tensor]</text>
<text text-anchor="middle" x="1224.5" y="-789" font-family="monospace" font-size="10.00">hidden_size &#160;&#160;: &#160;&#160;&#160;&#160;&#160;&#160;&#160;&#160;&#160;&#160;&#160;&#160;100</text>
<text text-anchor="middle" x="1224.5" y="-778" font-family="monospace" font-size="10.00">hx &#160;&#160;&#160;&#160;&#160;&#160;&#160;&#160;&#160;&#160;&#160;: &#160;[saved tensor]</text>
<text text-anchor="middle" x="1224.5" y="-767" font-family="monospace" font-size="10.00">input &#160;&#160;&#160;&#160;&#160;&#160;&#160;&#160;: &#160;[saved tensor]</text>
<text text-anchor="middle" x="1224.5" y="-756" font-family="monospace" font-size="10.00">mode &#160;&#160;&#160;&#160;&#160;&#160;&#160;&#160;&#160;: &#160;&#160;&#160;&#160;&#160;&#160;&#160;&#160;&#160;&#160;&#160;&#160;&#160;&#160;2</text>
<text text-anchor="middle" x="1224.5" y="-745" font-family="monospace" font-size="10.00">num_layers &#160;&#160;&#160;: &#160;&#160;&#160;&#160;&#160;&#160;&#160;&#160;&#160;&#160;&#160;&#160;&#160;&#160;1</text>
<text text-anchor="middle" x="1224.5" y="-734" font-family="monospace" font-size="10.00">proj_size &#160;&#160;&#160;&#160;: &#160;&#160;&#160;&#160;&#160;&#160;&#160;&#160;&#160;&#160;&#160;&#160;&#160;&#160;0</text>
<text text-anchor="middle" x="1224.5" y="-723" font-family="monospace" font-size="10.00">result0 &#160;&#160;&#160;&#160;&#160;&#160;: &#160;[saved tensor]</text>
<text text-anchor="middle" x="1224.5" y="-712" font-family="monospace" font-size="10.00">result3 &#160;&#160;&#160;&#160;&#160;&#160;: &#160;[saved tensor]</text>
<text text-anchor="middle" x="1224.5" y="-701" font-family="monospace" font-size="10.00">result4 &#160;&#160;&#160;&#160;&#160;&#160;: &#160;[saved tensor]</text>
<text text-anchor="middle" x="1224.5" y="-690" font-family="monospace" font-size="10.00">train &#160;&#160;&#160;&#160;&#160;&#160;&#160;&#160;: &#160;&#160;&#160;&#160;&#160;&#160;&#160;&#160;&#160;&#160;False</text>
<text text-anchor="middle" x="1224.5" y="-679" font-family="monospace" font-size="10.00">weight &#160;&#160;&#160;&#160;&#160;&#160;&#160;: [saved tensors]</text>
<text text-anchor="middle" x="1224.5" y="-668" font-family="monospace" font-size="10.00">weight_stride0: &#160;&#160;&#160;&#160;&#160;&#160;&#160;&#160;&#160;&#160;&#160;&#160;&#160;&#160;4</text>
</g>
<!-- 2522156080048&#45;&gt;2522156077456 -->
<g id="edge11" class="edge">
<title>2522156080048&#45;&gt;2522156077456</title>
<path fill="none" stroke="black" d="M1122.66,-768.58C935.73,-756.65 526.3,-721.34 183.76,-625.47"/>
<polygon fill="black" stroke="black" points="184.97,-621.89 174.39,-622.54 183.07,-628.63 184.97,-621.89"/>
</g>
<!-- 2520406476576 -->
<g id="node14" class="node">
<title>2520406476576</title>
<polygon fill="orange" stroke="black" points="286,-597.5 191,-597.5 191,-567.5 286,-567.5 286,-597.5"/>
<text text-anchor="middle" x="238.5" y="-585.5" font-family="monospace" font-size="10.00">cx</text>
<text text-anchor="middle" x="238.5" y="-574.5" font-family="monospace" font-size="10.00"> (2, 32, 100)</text>
</g>
<!-- 2522156080048&#45;&gt;2520406476576 -->
<g id="edge12" class="edge">
<title>2522156080048&#45;&gt;2520406476576</title>
<path fill="none" stroke="black" d="M1122.83,-773.29C947.07,-768.73 578.04,-744.31 294.5,-625 279.11,-618.52 264.04,-606.97 253.41,-597.69"/>
</g>
<!-- 2521882378048 -->
<g id="node15" class="node">
<title>2521882378048</title>
<polygon fill="orange" stroke="black" points="399,-597.5 304,-597.5 304,-567.5 399,-567.5 399,-597.5"/>
<text text-anchor="middle" x="351.5" y="-585.5" font-family="monospace" font-size="10.00">dropout_state</text>
<text text-anchor="middle" x="351.5" y="-574.5" font-family="monospace" font-size="10.00"> (1105920)</text>
</g>
<!-- 2522156080048&#45;&gt;2521882378048 -->
<g id="edge13" class="edge">
<title>2522156080048&#45;&gt;2521882378048</title>
<path fill="none" stroke="black" d="M1122.79,-770.2C963.91,-761.08 649.91,-730.09 407.5,-625 392.4,-618.45 377.54,-607.15 366.93,-597.99"/>
</g>
<!-- 2520409281536 -->
<g id="node16" class="node">
<title>2520409281536</title>
<polygon fill="orange" stroke="black" points="512,-597.5 417,-597.5 417,-567.5 512,-567.5 512,-597.5"/>
<text text-anchor="middle" x="464.5" y="-585.5" font-family="monospace" font-size="10.00">hx</text>
<text text-anchor="middle" x="464.5" y="-574.5" font-family="monospace" font-size="10.00"> (2, 32, 100)</text>
</g>
<!-- 2522156080048&#45;&gt;2520409281536 -->
<g id="edge14" class="edge">
<title>2522156080048&#45;&gt;2520409281536</title>
<path fill="none" stroke="black" d="M1122.65,-766.16C981.85,-752.32 722.26,-715.87 520.5,-625 505.49,-618.24 490.63,-606.95 479.99,-597.85"/>
</g>
<!-- 2519018684800 -->
<g id="node17" class="node">
<title>2519018684800</title>
<polygon fill="orange" stroke="black" points="637,-597.5 530,-597.5 530,-567.5 637,-567.5 637,-597.5"/>
<text text-anchor="middle" x="583.5" y="-585.5" font-family="monospace" font-size="10.00">input</text>
<text text-anchor="middle" x="583.5" y="-574.5" font-family="monospace" font-size="10.00"> (32, 188, 200)</text>
</g>
<!-- 2522156080048&#45;&gt;2519018684800 -->
<g id="edge15" class="edge">
<title>2522156080048&#45;&gt;2519018684800</title>
<path fill="none" stroke="black" d="M1122.71,-758.54C1004.28,-738.15 804.66,-696.24 645.5,-625 629.66,-617.91 613.41,-606.87 601.53,-597.96"/>
</g>
<!-- 2521882512416 -->
<g id="node18" class="node">
<title>2521882512416</title>
<polygon fill="orange" stroke="black" points="762,-597.5 655,-597.5 655,-567.5 762,-567.5 762,-597.5"/>
<text text-anchor="middle" x="708.5" y="-585.5" font-family="monospace" font-size="10.00">result0</text>
<text text-anchor="middle" x="708.5" y="-574.5" font-family="monospace" font-size="10.00"> (32, 188, 200)</text>
</g>
<!-- 2522156080048&#45;&gt;2521882512416 -->
<g id="edge16" class="edge">
<title>2522156080048&#45;&gt;2521882512416</title>
<path fill="none" stroke="black" d="M1122.69,-749.15C1028.59,-724.21 886.27,-681.42 770.5,-625 755.01,-617.45 738.88,-606.55 726.96,-597.81"/>
</g>
<!-- 2521882374448 -->
<g id="node19" class="node">
<title>2521882374448</title>
<polygon fill="orange" stroke="black" points="839,-597.5 780,-597.5 780,-567.5 839,-567.5 839,-597.5"/>
<text text-anchor="middle" x="809.5" y="-585.5" font-family="monospace" font-size="10.00">result3</text>
<text text-anchor="middle" x="809.5" y="-574.5" font-family="monospace" font-size="10.00"> (0)</text>
</g>
<!-- 2522156080048&#45;&gt;2521882374448 -->
<g id="edge17" class="edge">
<title>2522156080048&#45;&gt;2521882374448</title>
<path fill="none" stroke="black" d="M1122.79,-747.51C1043.24,-723.67 932.28,-683.36 847.5,-625 836.72,-617.58 826.81,-606.55 819.82,-597.73"/>
</g>
<!-- 2521882374208 -->
<g id="node20" class="node">
<title>2521882374208</title>
<polygon fill="orange" stroke="black" points="928,-597.5 857,-597.5 857,-567.5 928,-567.5 928,-597.5"/>
<text text-anchor="middle" x="892.5" y="-585.5" font-family="monospace" font-size="10.00">result4</text>
<text text-anchor="middle" x="892.5" y="-574.5" font-family="monospace" font-size="10.00"> (241600)</text>
</g>
<!-- 2522156080048&#45;&gt;2521882374208 -->
<g id="edge18" class="edge">
<title>2522156080048&#45;&gt;2521882374208</title>
<path fill="none" stroke="black" d="M1122.56,-729.81C1065.59,-703.06 994.59,-666.19 936.5,-625 925.19,-616.98 913.85,-606.2 905.51,-597.63"/>
</g>
<!-- 2520406488384 -->
<g id="node21" class="node">
<title>2520406488384</title>
<polygon fill="lightblue" stroke="black" points="1029,-598 946,-598 946,-567 1029,-567 1029,-598"/>
<text text-anchor="middle" x="987.5" y="-574" font-family="monospace" font-size="10.00"> (400, 200)</text>
</g>
<!-- 2522156080048&#45;&gt;2520406488384 -->
<g id="edge19" class="edge">
<title>2522156080048&#45;&gt;2520406488384</title>
<path fill="none" stroke="black" d="M1122.62,-692.11C1078.45,-656.61 1031.15,-618.59 1005.9,-598.29"/>
</g>
<!-- 2520406488944 -->
<g id="node22" class="node">
<title>2520406488944</title>
<polygon fill="lightblue" stroke="black" points="1169,-598 1086,-598 1086,-567 1169,-567 1169,-598"/>
<text text-anchor="middle" x="1127.5" y="-574" font-family="monospace" font-size="10.00"> (400, 100)</text>
</g>
<!-- 2522156080048&#45;&gt;2520406488944 -->
<g id="edge20" class="edge">
<title>2522156080048&#45;&gt;2520406488944</title>
<path fill="none" stroke="black" d="M1166.81,-660.71C1154.12,-635.78 1142.3,-612.56 1135,-598.23"/>
</g>
<!-- 2520406489024 -->
<g id="node23" class="node">
<title>2520406489024</title>
<polygon fill="lightblue" stroke="black" points="1279.5,-598 1225.5,-598 1225.5,-567 1279.5,-567 1279.5,-598"/>
<text text-anchor="middle" x="1252.5" y="-574" font-family="monospace" font-size="10.00"> (400)</text>
</g>
<!-- 2522156080048&#45;&gt;2520406489024 -->
<g id="edge21" class="edge">
<title>2522156080048&#45;&gt;2520406489024</title>
<path fill="none" stroke="black" d="M1241.15,-660.71C1244.82,-635.78 1248.23,-612.56 1250.34,-598.23"/>
</g>
<!-- 2520406489104 -->
<g id="node24" class="node">
<title>2520406489104</title>
<polygon fill="lightblue" stroke="black" points="1389.5,-598 1335.5,-598 1335.5,-567 1389.5,-567 1389.5,-598"/>
<text text-anchor="middle" x="1362.5" y="-574" font-family="monospace" font-size="10.00"> (400)</text>
</g>
<!-- 2522156080048&#45;&gt;2520406489104 -->
<g id="edge22" class="edge">
<title>2522156080048&#45;&gt;2520406489104</title>
<path fill="none" stroke="black" d="M1306.57,-660.71C1324.63,-635.78 1341.45,-612.56 1351.83,-598.23"/>
</g>
<!-- 2520406489344 -->
<g id="node25" class="node">
<title>2520406489344</title>
<polygon fill="lightblue" stroke="black" points="1529,-598 1446,-598 1446,-567 1529,-567 1529,-598"/>
<text text-anchor="middle" x="1487.5" y="-574" font-family="monospace" font-size="10.00"> (400, 200)</text>
</g>
<!-- 2522156080048&#45;&gt;2520406489344 -->
<g id="edge23" class="edge">
<title>2522156080048&#45;&gt;2520406489344</title>
<path fill="none" stroke="black" d="M1326.23,-667.36C1329.29,-665.15 1332.39,-663.02 1335.5,-661 1373.7,-636.16 1391.47,-646.78 1431.5,-625 1445.32,-617.48 1459.54,-606.9 1470.2,-598.3"/>
</g>
<!-- 2520406489424 -->
<g id="node26" class="node">
<title>2520406489424</title>
<polygon fill="lightblue" stroke="black" points="1669,-598 1586,-598 1586,-567 1669,-567 1669,-598"/>
<text text-anchor="middle" x="1627.5" y="-574" font-family="monospace" font-size="10.00"> (400, 100)</text>
</g>
<!-- 2522156080048&#45;&gt;2520406489424 -->
<g id="edge24" class="edge">
<title>2522156080048&#45;&gt;2520406489424</title>
<path fill="none" stroke="black" d="M1326.43,-666.03C1329.41,-664.25 1332.44,-662.57 1335.5,-661 1429.96,-612.68 1473.55,-665.79 1571.5,-625 1586.69,-618.67 1601.55,-607.36 1612.14,-598.14"/>
</g>
<!-- 2520406489504 -->
<g id="node27" class="node">
<title>2520406489504</title>
<polygon fill="lightblue" stroke="black" points="1779.5,-598 1725.5,-598 1725.5,-567 1779.5,-567 1779.5,-598"/>
<text text-anchor="middle" x="1752.5" y="-574" font-family="monospace" font-size="10.00"> (400)</text>
</g>
<!-- 2522156080048&#45;&gt;2520406489504 -->
<g id="edge25" class="edge">
<title>2522156080048&#45;&gt;2520406489504</title>
<path fill="none" stroke="black" d="M1326.31,-665.8C1329.33,-664.08 1332.4,-662.48 1335.5,-661 1487.03,-588.75 1559.86,-697.03 1711.5,-625 1723.94,-619.09 1734.74,-607.75 1742.12,-598.41"/>
</g>
<!-- 2520406489584 -->
<g id="node28" class="node">
<title>2520406489584</title>
<polygon fill="lightblue" stroke="black" points="1889.5,-598 1835.5,-598 1835.5,-567 1889.5,-567 1889.5,-598"/>
<text text-anchor="middle" x="1862.5" y="-574" font-family="monospace" font-size="10.00"> (400)</text>
</g>
<!-- 2522156080048&#45;&gt;2520406489584 -->
<g id="edge26" class="edge">
<title>2522156080048&#45;&gt;2520406489584</title>
<path fill="none" stroke="black" d="M1326.27,-665.71C1329.3,-664.02 1332.38,-662.45 1335.5,-661 1532,-569.9 1624.87,-715.82 1821.5,-625 1834,-619.22 1844.79,-607.87 1852.16,-598.5"/>
</g>
<!-- 2522156077168 -->
<g id="node33" class="node">
<title>2522156077168</title>
<polygon fill="lightgrey" stroke="black" points="1048,-482 947,-482 947,-463 1048,-463 1048,-482"/>
<text text-anchor="middle" x="997.5" y="-470" font-family="monospace" font-size="10.00">AccumulateGrad</text>
</g>
<!-- 2520406488384&#45;&gt;2522156077168 -->
<g id="edge32" class="edge">
<title>2520406488384&#45;&gt;2522156077168</title>
<path fill="none" stroke="black" d="M988.85,-566.93C990.61,-547.88 993.71,-514.43 995.68,-493.15"/>
<polygon fill="black" stroke="black" points="999.23,-493.77 996.67,-483.49 992.26,-493.12 999.23,-493.77"/>
</g>
<!-- 2522156080864 -->
<g id="node34" class="node">
<title>2522156080864</title>
<polygon fill="lightgrey" stroke="black" points="1181,-482 1080,-482 1080,-463 1181,-463 1181,-482"/>
<text text-anchor="middle" x="1130.5" y="-470" font-family="monospace" font-size="10.00">AccumulateGrad</text>
</g>
<!-- 2520406488944&#45;&gt;2522156080864 -->
<g id="edge34" class="edge">
<title>2520406488944&#45;&gt;2522156080864</title>
<path fill="none" stroke="black" d="M1127.9,-566.93C1128.43,-547.97 1129.35,-514.74 1129.95,-493.45"/>
<polygon fill="black" stroke="black" points="1133.47,-493.58 1130.25,-483.49 1126.47,-493.39 1133.47,-493.58"/>
</g>
<!-- 2522120176592 -->
<g id="node35" class="node">
<title>2522120176592</title>
<polygon fill="lightgrey" stroke="black" points="1305,-482 1204,-482 1204,-463 1305,-463 1305,-482"/>
<text text-anchor="middle" x="1254.5" y="-470" font-family="monospace" font-size="10.00">AccumulateGrad</text>
</g>
<!-- 2520406489024&#45;&gt;2522120176592 -->
<g id="edge36" class="edge">
<title>2520406489024&#45;&gt;2522120176592</title>
<path fill="none" stroke="black" d="M1252.77,-566.93C1253.12,-547.97 1253.74,-514.74 1254.13,-493.45"/>
<polygon fill="black" stroke="black" points="1257.65,-493.55 1254.33,-483.49 1250.65,-493.42 1257.65,-493.55"/>
</g>
<!-- 2522120176928 -->
<g id="node36" class="node">
<title>2522120176928</title>
<polygon fill="lightgrey" stroke="black" points="1430,-482 1329,-482 1329,-463 1430,-463 1430,-482"/>
<text text-anchor="middle" x="1379.5" y="-470" font-family="monospace" font-size="10.00">AccumulateGrad</text>
</g>
<!-- 2520406489104&#45;&gt;2522120176928 -->
<g id="edge38" class="edge">
<title>2520406489104&#45;&gt;2522120176928</title>
<path fill="none" stroke="black" d="M1364.79,-566.93C1367.79,-547.88 1373.06,-514.43 1376.41,-493.15"/>
<polygon fill="black" stroke="black" points="1379.99,-493.91 1378.09,-483.49 1373.07,-492.82 1379.99,-493.91"/>
</g>
<!-- 2522120176112 -->
<g id="node37" class="node">
<title>2522120176112</title>
<polygon fill="lightgrey" stroke="black" points="1558,-482 1457,-482 1457,-463 1558,-463 1558,-482"/>
<text text-anchor="middle" x="1507.5" y="-470" font-family="monospace" font-size="10.00">AccumulateGrad</text>
</g>
<!-- 2520406489344&#45;&gt;2522120176112 -->
<g id="edge40" class="edge">
<title>2520406489344&#45;&gt;2522120176112</title>
<path fill="none" stroke="black" d="M1490.2,-566.93C1493.73,-547.88 1499.92,-514.43 1503.86,-493.15"/>
<polygon fill="black" stroke="black" points="1507.46,-493.96 1505.84,-483.49 1500.57,-492.68 1507.46,-493.96"/>
</g>
<!-- 2522120177552 -->
<g id="node38" class="node">
<title>2522120177552</title>
<polygon fill="lightgrey" stroke="black" points="1681,-482 1580,-482 1580,-463 1681,-463 1681,-482"/>
<text text-anchor="middle" x="1630.5" y="-470" font-family="monospace" font-size="10.00">AccumulateGrad</text>
</g>
<!-- 2520406489424&#45;&gt;2522120177552 -->
<g id="edge42" class="edge">
<title>2520406489424&#45;&gt;2522120177552</title>
<path fill="none" stroke="black" d="M1627.9,-566.93C1628.43,-547.97 1629.35,-514.74 1629.95,-493.45"/>
<polygon fill="black" stroke="black" points="1633.47,-493.58 1630.25,-483.49 1626.47,-493.39 1633.47,-493.58"/>
</g>
<!-- 2522120177696 -->
<g id="node39" class="node">
<title>2522120177696</title>
<polygon fill="lightgrey" stroke="black" points="1803,-482 1702,-482 1702,-463 1803,-463 1803,-482"/>
<text text-anchor="middle" x="1752.5" y="-470" font-family="monospace" font-size="10.00">AccumulateGrad</text>
</g>
<!-- 2520406489504&#45;&gt;2522120177696 -->
<g id="edge44" class="edge">
<title>2520406489504&#45;&gt;2522120177696</title>
<path fill="none" stroke="black" d="M1752.5,-566.93C1752.5,-547.97 1752.5,-514.74 1752.5,-493.45"/>
<polygon fill="black" stroke="black" points="1756,-493.49 1752.5,-483.49 1749,-493.49 1756,-493.49"/>
</g>
<!-- 2522120176400 -->
<g id="node40" class="node">
<title>2522120176400</title>
<polygon fill="lightgrey" stroke="black" points="1922,-482 1821,-482 1821,-463 1922,-463 1922,-482"/>
<text text-anchor="middle" x="1871.5" y="-470" font-family="monospace" font-size="10.00">AccumulateGrad</text>
</g>
<!-- 2520406489584&#45;&gt;2522120176400 -->
<g id="edge46" class="edge">
<title>2520406489584&#45;&gt;2522120176400</title>
<path fill="none" stroke="black" d="M1863.71,-566.93C1865.29,-547.97 1868.06,-514.74 1869.84,-493.45"/>
<polygon fill="black" stroke="black" points="1873.41,-493.74 1870.75,-483.49 1866.43,-493.16 1873.41,-493.74"/>
</g>
<!-- 2522156080912 -->
<g id="node29" class="node">
<title>2522156080912</title>
<polygon fill="lightgrey" stroke="black" points="1414,-1010 1193,-1010 1193,-925 1414,-925 1414,-1010"/>
<text text-anchor="middle" x="1303.5" y="-998" font-family="monospace" font-size="10.00">EmbeddingBackward0</text>
<text text-anchor="middle" x="1303.5" y="-987" font-family="monospace" font-size="10.00">&#45;&#45;&#45;&#45;&#45;&#45;&#45;&#45;&#45;&#45;&#45;&#45;&#45;&#45;&#45;&#45;&#45;&#45;&#45;&#45;&#45;&#45;&#45;&#45;&#45;&#45;&#45;&#45;&#45;&#45;&#45;&#45;&#45;&#45;</text>
<text text-anchor="middle" x="1303.5" y="-976" font-family="monospace" font-size="10.00">indices &#160;&#160;&#160;&#160;&#160;&#160;&#160;&#160;&#160;&#160;: [saved tensor]</text>
<text text-anchor="middle" x="1303.5" y="-965" font-family="monospace" font-size="10.00">padding_idx &#160;&#160;&#160;&#160;&#160;&#160;: &#160;&#160;&#160;&#160;4294967295</text>
<text text-anchor="middle" x="1303.5" y="-954" font-family="monospace" font-size="10.00">scale_grad_by_freq: &#160;&#160;&#160;&#160;&#160;&#160;&#160;&#160;&#160;False</text>
<text text-anchor="middle" x="1303.5" y="-943" font-family="monospace" font-size="10.00">sparse &#160;&#160;&#160;&#160;&#160;&#160;&#160;&#160;&#160;&#160;&#160;: &#160;&#160;&#160;&#160;&#160;&#160;&#160;&#160;&#160;False</text>
<text text-anchor="middle" x="1303.5" y="-932" font-family="monospace" font-size="10.00">weight_argsize_0 &#160;: &#160;&#160;&#160;&#160;&#160;&#160;&#160;&#160;&#160;41888</text>
</g>
<!-- 2522156080912&#45;&gt;2522156080048 -->
<g id="edge27" class="edge">
<title>2522156080912&#45;&gt;2522156080048</title>
<path fill="none" stroke="black" d="M1286.16,-924.69C1282.93,-916.9 1279.4,-908.39 1275.73,-899.53"/>
<polygon fill="black" stroke="black" points="1278.58,-898.28 1271.52,-890.38 1272.12,-900.96 1278.58,-898.28"/>
</g>
<!-- 2520366517520 -->
<g id="node30" class="node">
<title>2520366517520</title>
<polygon fill="orange" stroke="black" points="1421,-790 1344,-790 1344,-760 1421,-760 1421,-790"/>
<text text-anchor="middle" x="1382.5" y="-778" font-family="monospace" font-size="10.00">indices</text>
<text text-anchor="middle" x="1382.5" y="-767" font-family="monospace" font-size="10.00"> (32, 188)</text>
</g>
<!-- 2522156080912&#45;&gt;2520366517520 -->
<g id="edge28" class="edge">
<title>2522156080912&#45;&gt;2520366517520</title>
<path fill="none" stroke="black" d="M1320.84,-924.69C1338.46,-882.2 1364.78,-818.72 1376.5,-790.46"/>
</g>
<!-- 2522120176256 -->
<g id="node31" class="node">
<title>2522120176256</title>
<polygon fill="lightgrey" stroke="black" points="1354,-1065 1253,-1065 1253,-1046 1354,-1046 1354,-1065"/>
<text text-anchor="middle" x="1303.5" y="-1053" font-family="monospace" font-size="10.00">AccumulateGrad</text>
</g>
<!-- 2522120176256&#45;&gt;2522156080912 -->
<g id="edge29" class="edge">
<title>2522120176256&#45;&gt;2522156080912</title>
<path fill="none" stroke="black" d="M1303.5,-1045.62C1303.5,-1039.45 1303.5,-1030.65 1303.5,-1021.2"/>
<polygon fill="black" stroke="black" points="1307,-1021.35 1303.5,-1011.35 1300,-1021.35 1307,-1021.35"/>
</g>
<!-- 2520406488864 -->
<g id="node32" class="node">
<title>2520406488864</title>
<polygon fill="lightblue" stroke="black" points="1351,-1132 1256,-1132 1256,-1101 1351,-1101 1351,-1132"/>
<text text-anchor="middle" x="1303.5" y="-1108" font-family="monospace" font-size="10.00"> (41888, 200)</text>
</g>
<!-- 2520406488864&#45;&gt;2522120176256 -->
<g id="edge30" class="edge">
<title>2520406488864&#45;&gt;2522120176256</title>
<path fill="none" stroke="black" d="M1303.5,-1100.61C1303.5,-1093.18 1303.5,-1084.08 1303.5,-1076.09"/>
<polygon fill="black" stroke="black" points="1307,-1076.16 1303.5,-1066.16 1300,-1076.16 1307,-1076.16"/>
</g>
<!-- 2522156077168&#45;&gt;2522156080048 -->
<g id="edge31" class="edge">
<title>2522156077168&#45;&gt;2522156080048</title>
<path fill="none" stroke="black" d="M1003.43,-482.33C1011.74,-494.88 1027.11,-518.71 1038.5,-540 1058.11,-576.65 1053.88,-590.8 1077.5,-625 1088.75,-641.3 1101.88,-657.41 1115.57,-672.67"/>
<polygon fill="black" stroke="black" points="1112.45,-674.54 1121.77,-679.57 1117.62,-669.83 1112.45,-674.54"/>
</g>
<!-- 2522156080864&#45;&gt;2522156080048 -->
<g id="edge33" class="edge">
<title>2522156080864&#45;&gt;2522156080048</title>
<path fill="none" stroke="black" d="M1138.71,-482.19C1149.57,-494.2 1168.52,-517.01 1178.5,-540 1193.4,-574.31 1203.51,-613.54 1210.36,-649.95"/>
<polygon fill="black" stroke="black" points="1207.07,-650.42 1212.29,-659.64 1213.95,-649.17 1207.07,-650.42"/>
</g>
<!-- 2522120176592&#45;&gt;2522156080048 -->
<g id="edge35" class="edge">
<title>2522120176592&#45;&gt;2522156080048</title>
<path fill="none" stroke="black" d="M1260.82,-482.42C1269.09,-494.7 1283.16,-517.81 1288.5,-540 1297.34,-576.73 1296.11,-588 1288.5,-625 1286.77,-633.43 1284.53,-641.97 1281.95,-650.48"/>
<polygon fill="black" stroke="black" points="1278.35,-649.23 1278.62,-659.83 1285.01,-651.37 1278.35,-649.23"/>
</g>
<!-- 2522120176928&#45;&gt;2522156080048 -->
<g id="edge37" class="edge">
<title>2522120176928&#45;&gt;2522156080048</title>
<path fill="none" stroke="black" d="M1384.17,-482.45C1396.34,-507.1 1426.17,-577.31 1398.5,-625 1382.31,-652.89 1361.04,-641.31 1335.5,-661 1335.31,-661.15 1335.12,-661.29 1334.93,-661.44"/>
<polygon fill="black" stroke="black" points="1333,-659.3 1327.37,-668.28 1337.36,-664.77 1333,-659.3"/>
</g>
<!-- 2522120176112&#45;&gt;2522156080048 -->
<g id="edge39" class="edge">
<title>2522120176112&#45;&gt;2522156080048</title>
<path fill="none" stroke="black" d="M1513.65,-482.23C1530.66,-507.53 1574.72,-581.79 1538.5,-625 1481.76,-692.68 1421.12,-623.66 1336.14,-661.42"/>
<polygon fill="black" stroke="black" points="1334.93,-658.6 1327.48,-666.13 1338,-664.89 1334.93,-658.6"/>
</g>
<!-- 2522120177552&#45;&gt;2522156080048 -->
<g id="edge41" class="edge">
<title>2522120177552&#45;&gt;2522156080048</title>
<path fill="none" stroke="black" d="M1639.77,-482.34C1651.44,-494.18 1670.88,-516.43 1678.5,-540 1690.12,-575.95 1703.78,-596.93 1678.5,-625 1629.27,-679.67 1422.09,-631.87 1336.4,-661.69"/>
<polygon fill="black" stroke="black" points="1335.24,-658.79 1327.33,-665.84 1337.91,-665.26 1335.24,-658.79"/>
</g>
<!-- 2522120177696&#45;&gt;2522156080048 -->
<g id="edge43" class="edge">
<title>2522120177696&#45;&gt;2522156080048</title>
<path fill="none" stroke="black" d="M1759.3,-482.38C1778.12,-508.07 1827.02,-583.3 1788.5,-625 1722.12,-696.86 1445.09,-623.18 1336.27,-661.65"/>
<polygon fill="black" stroke="black" points="1335.21,-658.71 1327.28,-665.73 1337.86,-665.19 1335.21,-658.71"/>
</g>
<!-- 2522120176400&#45;&gt;2522156080048 -->
<g id="edge45" class="edge">
<title>2522120176400&#45;&gt;2522156080048</title>
<path fill="none" stroke="black" d="M1877.52,-482.45C1894.13,-508.35 1936.89,-584.08 1898.5,-625 1857.41,-668.8 1430.65,-637.78 1336.63,-662.13"/>
<polygon fill="black" stroke="black" points="1335.59,-659.13 1327.25,-665.66 1337.84,-665.76 1335.59,-659.13"/>
</g>
<!-- 2522156077120 -->
<g id="node41" class="node">
<title>2522156077120</title>
<polygon fill="lightgrey" stroke="black" points="1523,-372 1446,-372 1446,-353 1523,-353 1523,-372"/>
<text text-anchor="middle" x="1484.5" y="-360" font-family="monospace" font-size="10.00">TBackward0</text>
</g>
<!-- 2522156077120&#45;&gt;2522156077888 -->
<g id="edge47" class="edge">
<title>2522156077120&#45;&gt;2522156077888</title>
<path fill="none" stroke="black" d="M1445.68,-356.31C1301.54,-337.05 794.04,-269.23 573.78,-239.8"/>
<polygon fill="black" stroke="black" points="574.57,-236.24 564.19,-238.39 573.64,-243.18 574.57,-236.24"/>
</g>
<!-- 2522156079568 -->
<g id="node42" class="node">
<title>2522156079568</title>
<polygon fill="lightgrey" stroke="black" points="2041,-482 1940,-482 1940,-463 2041,-463 2041,-482"/>
<text text-anchor="middle" x="1990.5" y="-470" font-family="monospace" font-size="10.00">AccumulateGrad</text>
</g>
<!-- 2522156079568&#45;&gt;2522156077120 -->
<g id="edge48" class="edge">
<title>2522156079568&#45;&gt;2522156077120</title>
<path fill="none" stroke="black" d="M1976.49,-462.7C1964.87,-455.78 1947.68,-446.44 1931.5,-441 1792,-394.09 1617.99,-374.37 1534.18,-367.14"/>
<polygon fill="black" stroke="black" points="1534.7,-363.59 1524.44,-366.24 1534.12,-370.56 1534.7,-363.59"/>
</g>
<!-- 2520406489984 -->
<g id="node43" class="node">
<title>2520406489984</title>
<polygon fill="lightblue" stroke="black" points="2026,-598 1955,-598 1955,-567 2026,-567 2026,-598"/>
<text text-anchor="middle" x="1990.5" y="-574" font-family="monospace" font-size="10.00"> (5, 200)</text>
</g>
<!-- 2520406489984&#45;&gt;2522156079568 -->
<g id="edge49" class="edge">
<title>2520406489984&#45;&gt;2522156079568</title>
<path fill="none" stroke="black" d="M1990.5,-566.93C1990.5,-547.97 1990.5,-514.74 1990.5,-493.45"/>
<polygon fill="black" stroke="black" points="1994,-493.49 1990.5,-483.49 1987,-493.49 1994,-493.49"/>
</g>
</g>
</svg>
