<?xml version="1.0" encoding="UTF-8" standalone="no"?>
<!DOCTYPE svg PUBLIC "-//W3C//DTD SVG 1.1//EN"
 "http://www.w3.org/Graphics/SVG/1.1/DTD/svg11.dtd">
<!-- Generated by graphviz version 8.0.3 (20230416.2022)
 -->
<!-- Pages: 1 -->
<svg width="864pt" height="463pt"
 viewBox="0.00 0.00 864.00 463.45" xmlns="http://www.w3.org/2000/svg" xmlns:xlink="http://www.w3.org/1999/xlink">
<g id="graph0" class="graph" transform="scale(0.796313 0.796313) rotate(0) translate(4 578)">
<polygon fill="white" stroke="none" points="-4,4 -4,-578 1081,-578 1081,4 -4,4"/>
<!-- 2205589562768 -->
<g id="node1" class="node">
<title>2205589562768</title>
<polygon fill="#caff70" stroke="black" points="587,-31 522,-31 522,0 587,0 587,-31"/>
<text text-anchor="middle" x="554.5" y="-7" font-family="monospace" font-size="10.00"> (32, 5)</text>
</g>
<!-- 2207092330704 -->
<g id="node2" class="node">
<title>2207092330704</title>
<polygon fill="lightgrey" stroke="black" points="620,-86 489,-86 489,-67 620,-67 620,-86"/>
<text text-anchor="middle" x="554.5" y="-74" font-family="monospace" font-size="10.00">LogSoftmaxBackward0</text>
</g>
<!-- 2207092330704&#45;&gt;2205589562768 -->
<g id="edge30" class="edge">
<title>2207092330704&#45;&gt;2205589562768</title>
<path fill="none" stroke="black" d="M554.5,-66.54C554.5,-59.99 554.5,-50.77 554.5,-42.02"/>
<polygon fill="black" stroke="black" points="558,-42.06 554.5,-32.06 551,-42.06 558,-42.06"/>
</g>
<!-- 2207092331952 -->
<g id="node3" class="node">
<title>2207092331952</title>
<polygon fill="lightgrey" stroke="black" points="605,-141 504,-141 504,-122 605,-122 605,-141"/>
<text text-anchor="middle" x="554.5" y="-129" font-family="monospace" font-size="10.00">AddmmBackward0</text>
</g>
<!-- 2207092331952&#45;&gt;2207092330704 -->
<g id="edge1" class="edge">
<title>2207092331952&#45;&gt;2207092330704</title>
<path fill="none" stroke="black" d="M554.5,-121.75C554.5,-115.11 554.5,-105.73 554.5,-97.31"/>
<polygon fill="black" stroke="black" points="558,-97.44 554.5,-87.44 551,-97.44 558,-97.44"/>
</g>
<!-- 2207092331088 -->
<g id="node4" class="node">
<title>2207092331088</title>
<polygon fill="lightgrey" stroke="black" points="486,-196 385,-196 385,-177 486,-177 486,-196"/>
<text text-anchor="middle" x="435.5" y="-184" font-family="monospace" font-size="10.00">AccumulateGrad</text>
</g>
<!-- 2207092331088&#45;&gt;2207092331952 -->
<g id="edge2" class="edge">
<title>2207092331088&#45;&gt;2207092331952</title>
<path fill="none" stroke="black" d="M455.69,-176.51C474.61,-168.08 503.12,-155.38 524.67,-145.79"/>
<polygon fill="black" stroke="black" points="525.9,-148.62 533.61,-141.36 523.05,-142.23 525.9,-148.62"/>
</g>
<!-- 2206874333968 -->
<g id="node5" class="node">
<title>2206874333968</title>
<polygon fill="lightblue" stroke="black" points="462.5,-263 408.5,-263 408.5,-232 462.5,-232 462.5,-263"/>
<text text-anchor="middle" x="435.5" y="-239" font-family="monospace" font-size="10.00"> (5)</text>
</g>
<!-- 2206874333968&#45;&gt;2207092331088 -->
<g id="edge3" class="edge">
<title>2206874333968&#45;&gt;2207092331088</title>
<path fill="none" stroke="black" d="M435.5,-231.61C435.5,-224.18 435.5,-215.08 435.5,-207.09"/>
<polygon fill="black" stroke="black" points="439,-207.16 435.5,-197.16 432,-207.16 439,-207.16"/>
</g>
<!-- 2207092332864 -->
<g id="node6" class="node">
<title>2207092332864</title>
<polygon fill="lightgrey" stroke="black" points="605,-196 504,-196 504,-177 605,-177 605,-196"/>
<text text-anchor="middle" x="554.5" y="-184" font-family="monospace" font-size="10.00">SliceBackward0</text>
</g>
<!-- 2207092332864&#45;&gt;2207092331952 -->
<g id="edge4" class="edge">
<title>2207092332864&#45;&gt;2207092331952</title>
<path fill="none" stroke="black" d="M554.5,-176.75C554.5,-170.11 554.5,-160.73 554.5,-152.31"/>
<polygon fill="black" stroke="black" points="558,-152.44 554.5,-142.44 551,-152.44 558,-152.44"/>
</g>
<!-- 2207092332576 -->
<g id="node7" class="node">
<title>2207092332576</title>
<polygon fill="lightgrey" stroke="black" points="604,-257 497,-257 497,-238 604,-238 604,-257"/>
<text text-anchor="middle" x="550.5" y="-245" font-family="monospace" font-size="10.00">SelectBackward0</text>
</g>
<!-- 2207092332576&#45;&gt;2207092332864 -->
<g id="edge5" class="edge">
<title>2207092332576&#45;&gt;2207092332864</title>
<path fill="none" stroke="black" d="M551.11,-237.54C551.65,-229.48 552.48,-217.35 553.17,-207.05"/>
<polygon fill="black" stroke="black" points="556.73,-207.37 553.91,-197.16 549.74,-206.9 556.73,-207.37"/>
</g>
<!-- 2207092333104 -->
<g id="node8" class="node">
<title>2207092333104</title>
<polygon fill="lightgrey" stroke="black" points="601,-324 500,-324 500,-305 601,-305 601,-324"/>
<text text-anchor="middle" x="550.5" y="-312" font-family="monospace" font-size="10.00">SliceBackward0</text>
</g>
<!-- 2207092333104&#45;&gt;2207092332576 -->
<g id="edge6" class="edge">
<title>2207092333104&#45;&gt;2207092332576</title>
<path fill="none" stroke="black" d="M550.5,-304.73C550.5,-295.38 550.5,-280.25 550.5,-268.04"/>
<polygon fill="black" stroke="black" points="554,-268.13 550.5,-258.13 547,-268.13 554,-268.13"/>
</g>
<!-- 2207071793600 -->
<g id="node9" class="node">
<title>2207071793600</title>
<polygon fill="lightgrey" stroke="black" points="610,-385 491,-385 491,-366 610,-366 610,-385"/>
<text text-anchor="middle" x="550.5" y="-373" font-family="monospace" font-size="10.00">CudnnRnnBackward0</text>
</g>
<!-- 2207071793600&#45;&gt;2207092333104 -->
<g id="edge7" class="edge">
<title>2207071793600&#45;&gt;2207092333104</title>
<path fill="none" stroke="black" d="M550.5,-365.54C550.5,-357.48 550.5,-345.35 550.5,-335.05"/>
<polygon fill="black" stroke="black" points="554,-335.16 550.5,-325.16 547,-335.16 554,-335.16"/>
</g>
<!-- 2207071793312 -->
<g id="node10" class="node">
<title>2207071793312</title>
<polygon fill="lightgrey" stroke="black" points="125,-440 0,-440 0,-421 125,-421 125,-440"/>
<text text-anchor="middle" x="62.5" y="-428" font-family="monospace" font-size="10.00">EmbeddingBackward0</text>
</g>
<!-- 2207071793312&#45;&gt;2207071793600 -->
<g id="edge8" class="edge">
<title>2207071793312&#45;&gt;2207071793600</title>
<path fill="none" stroke="black" d="M125.21,-421.95C128.01,-421.62 130.79,-421.31 133.5,-421 255.18,-407.22 396.98,-392.34 479.93,-383.75"/>
<polygon fill="black" stroke="black" points="480.15,-387.14 489.74,-382.63 479.43,-380.18 480.15,-387.14"/>
</g>
<!-- 2207071794032 -->
<g id="node11" class="node">
<title>2207071794032</title>
<polygon fill="lightgrey" stroke="black" points="113,-501 12,-501 12,-482 113,-482 113,-501"/>
<text text-anchor="middle" x="62.5" y="-489" font-family="monospace" font-size="10.00">AccumulateGrad</text>
</g>
<!-- 2207071794032&#45;&gt;2207071793312 -->
<g id="edge9" class="edge">
<title>2207071794032&#45;&gt;2207071793312</title>
<path fill="none" stroke="black" d="M62.5,-481.54C62.5,-473.48 62.5,-461.35 62.5,-451.05"/>
<polygon fill="black" stroke="black" points="66,-451.16 62.5,-441.16 59,-451.16 66,-451.16"/>
</g>
<!-- 2206874396528 -->
<g id="node12" class="node">
<title>2206874396528</title>
<polygon fill="lightblue" stroke="black" points="110,-574 15,-574 15,-543 110,-543 110,-574"/>
<text text-anchor="middle" x="62.5" y="-550" font-family="monospace" font-size="10.00"> (41888, 200)</text>
</g>
<!-- 2206874396528&#45;&gt;2207071794032 -->
<g id="edge10" class="edge">
<title>2206874396528&#45;&gt;2207071794032</title>
<path fill="none" stroke="black" d="M62.5,-542.75C62.5,-533.7 62.5,-521.99 62.5,-512.16"/>
<polygon fill="black" stroke="black" points="66,-512.39 62.5,-502.39 59,-512.39 66,-512.39"/>
</g>
<!-- 2207071795088 -->
<g id="node13" class="node">
<title>2207071795088</title>
<polygon fill="lightgrey" stroke="black" points="244,-440 143,-440 143,-421 244,-421 244,-440"/>
<text text-anchor="middle" x="193.5" y="-428" font-family="monospace" font-size="10.00">AccumulateGrad</text>
</g>
<!-- 2207071795088&#45;&gt;2207071793600 -->
<g id="edge11" class="edge">
<title>2207071795088&#45;&gt;2207071793600</title>
<path fill="none" stroke="black" d="M244.27,-421.96C305.94,-412.81 410.33,-397.31 479.83,-386.99"/>
<polygon fill="black" stroke="black" points="480.3,-390.31 489.67,-385.38 479.27,-383.39 480.3,-390.31"/>
</g>
<!-- 2206834470000 -->
<g id="node14" class="node">
<title>2206834470000</title>
<polygon fill="lightblue" stroke="black" points="235,-507 152,-507 152,-476 235,-476 235,-507"/>
<text text-anchor="middle" x="193.5" y="-483" font-family="monospace" font-size="10.00"> (400, 200)</text>
</g>
<!-- 2206834470000&#45;&gt;2207071795088 -->
<g id="edge12" class="edge">
<title>2206834470000&#45;&gt;2207071795088</title>
<path fill="none" stroke="black" d="M193.5,-475.61C193.5,-468.18 193.5,-459.08 193.5,-451.09"/>
<polygon fill="black" stroke="black" points="197,-451.16 193.5,-441.16 190,-451.16 197,-451.16"/>
</g>
<!-- 2207071793360 -->
<g id="node15" class="node">
<title>2207071793360</title>
<polygon fill="lightgrey" stroke="black" points="363,-440 262,-440 262,-421 363,-421 363,-440"/>
<text text-anchor="middle" x="312.5" y="-428" font-family="monospace" font-size="10.00">AccumulateGrad</text>
</g>
<!-- 2207071793360&#45;&gt;2207071793600 -->
<g id="edge13" class="edge">
<title>2207071793360&#45;&gt;2207071793600</title>
<path fill="none" stroke="black" d="M352.87,-420.51C393.34,-411.5 455.77,-397.6 499.61,-387.83"/>
<polygon fill="black" stroke="black" points="500.33,-391.04 509.33,-385.45 498.8,-384.2 500.33,-391.04"/>
</g>
<!-- 2206834517152 -->
<g id="node16" class="node">
<title>2206834517152</title>
<polygon fill="lightblue" stroke="black" points="354,-507 271,-507 271,-476 354,-476 354,-507"/>
<text text-anchor="middle" x="312.5" y="-483" font-family="monospace" font-size="10.00"> (400, 100)</text>
</g>
<!-- 2206834517152&#45;&gt;2207071793360 -->
<g id="edge14" class="edge">
<title>2206834517152&#45;&gt;2207071793360</title>
<path fill="none" stroke="black" d="M312.5,-475.61C312.5,-468.18 312.5,-459.08 312.5,-451.09"/>
<polygon fill="black" stroke="black" points="316,-451.16 312.5,-441.16 309,-451.16 316,-451.16"/>
</g>
<!-- 2207071796912 -->
<g id="node17" class="node">
<title>2207071796912</title>
<polygon fill="lightgrey" stroke="black" points="482,-440 381,-440 381,-421 482,-421 482,-440"/>
<text text-anchor="middle" x="431.5" y="-428" font-family="monospace" font-size="10.00">AccumulateGrad</text>
</g>
<!-- 2207071796912&#45;&gt;2207071793600 -->
<g id="edge15" class="edge">
<title>2207071796912&#45;&gt;2207071793600</title>
<path fill="none" stroke="black" d="M451.69,-420.51C470.61,-412.08 499.12,-399.38 520.67,-389.79"/>
<polygon fill="black" stroke="black" points="521.9,-392.62 529.61,-385.36 519.05,-386.23 521.9,-392.62"/>
</g>
<!-- 2206874396128 -->
<g id="node18" class="node">
<title>2206874396128</title>
<polygon fill="lightblue" stroke="black" points="458.5,-507 404.5,-507 404.5,-476 458.5,-476 458.5,-507"/>
<text text-anchor="middle" x="431.5" y="-483" font-family="monospace" font-size="10.00"> (400)</text>
</g>
<!-- 2206874396128&#45;&gt;2207071796912 -->
<g id="edge16" class="edge">
<title>2206874396128&#45;&gt;2207071796912</title>
<path fill="none" stroke="black" d="M431.5,-475.61C431.5,-468.18 431.5,-459.08 431.5,-451.09"/>
<polygon fill="black" stroke="black" points="435,-451.16 431.5,-441.16 428,-451.16 435,-451.16"/>
</g>
<!-- 2207071794704 -->
<g id="node19" class="node">
<title>2207071794704</title>
<polygon fill="lightgrey" stroke="black" points="601,-440 500,-440 500,-421 601,-421 601,-440"/>
<text text-anchor="middle" x="550.5" y="-428" font-family="monospace" font-size="10.00">AccumulateGrad</text>
</g>
<!-- 2207071794704&#45;&gt;2207071793600 -->
<g id="edge17" class="edge">
<title>2207071794704&#45;&gt;2207071793600</title>
<path fill="none" stroke="black" d="M550.5,-420.75C550.5,-414.11 550.5,-404.73 550.5,-396.31"/>
<polygon fill="black" stroke="black" points="554,-396.44 550.5,-386.44 547,-396.44 554,-396.44"/>
</g>
<!-- 2206874397728 -->
<g id="node20" class="node">
<title>2206874397728</title>
<polygon fill="lightblue" stroke="black" points="577.5,-507 523.5,-507 523.5,-476 577.5,-476 577.5,-507"/>
<text text-anchor="middle" x="550.5" y="-483" font-family="monospace" font-size="10.00"> (400)</text>
</g>
<!-- 2206874397728&#45;&gt;2207071794704 -->
<g id="edge18" class="edge">
<title>2206874397728&#45;&gt;2207071794704</title>
<path fill="none" stroke="black" d="M550.5,-475.61C550.5,-468.18 550.5,-459.08 550.5,-451.09"/>
<polygon fill="black" stroke="black" points="554,-451.16 550.5,-441.16 547,-451.16 554,-451.16"/>
</g>
<!-- 2207071796096 -->
<g id="node21" class="node">
<title>2207071796096</title>
<polygon fill="lightgrey" stroke="black" points="720,-440 619,-440 619,-421 720,-421 720,-440"/>
<text text-anchor="middle" x="669.5" y="-428" font-family="monospace" font-size="10.00">AccumulateGrad</text>
</g>
<!-- 2207071796096&#45;&gt;2207071793600 -->
<g id="edge19" class="edge">
<title>2207071796096&#45;&gt;2207071793600</title>
<path fill="none" stroke="black" d="M649.31,-420.51C630.39,-412.08 601.88,-399.38 580.33,-389.79"/>
<polygon fill="black" stroke="black" points="581.95,-386.23 571.39,-385.36 579.1,-392.62 581.95,-386.23"/>
</g>
<!-- 2206874334128 -->
<g id="node22" class="node">
<title>2206874334128</title>
<polygon fill="lightblue" stroke="black" points="711,-507 628,-507 628,-476 711,-476 711,-507"/>
<text text-anchor="middle" x="669.5" y="-483" font-family="monospace" font-size="10.00"> (400, 200)</text>
</g>
<!-- 2206874334128&#45;&gt;2207071796096 -->
<g id="edge20" class="edge">
<title>2206874334128&#45;&gt;2207071796096</title>
<path fill="none" stroke="black" d="M669.5,-475.61C669.5,-468.18 669.5,-459.08 669.5,-451.09"/>
<polygon fill="black" stroke="black" points="673,-451.16 669.5,-441.16 666,-451.16 673,-451.16"/>
</g>
<!-- 2207071794752 -->
<g id="node23" class="node">
<title>2207071794752</title>
<polygon fill="lightgrey" stroke="black" points="839,-440 738,-440 738,-421 839,-421 839,-440"/>
<text text-anchor="middle" x="788.5" y="-428" font-family="monospace" font-size="10.00">AccumulateGrad</text>
</g>
<!-- 2207071794752&#45;&gt;2207071793600 -->
<g id="edge21" class="edge">
<title>2207071794752&#45;&gt;2207071793600</title>
<path fill="none" stroke="black" d="M748.13,-420.51C707.66,-411.5 645.23,-397.6 601.39,-387.83"/>
<polygon fill="black" stroke="black" points="602.2,-384.2 591.67,-385.45 600.67,-391.04 602.2,-384.2"/>
</g>
<!-- 2206874333328 -->
<g id="node24" class="node">
<title>2206874333328</title>
<polygon fill="lightblue" stroke="black" points="830,-507 747,-507 747,-476 830,-476 830,-507"/>
<text text-anchor="middle" x="788.5" y="-483" font-family="monospace" font-size="10.00"> (400, 100)</text>
</g>
<!-- 2206874333328&#45;&gt;2207071794752 -->
<g id="edge22" class="edge">
<title>2206874333328&#45;&gt;2207071794752</title>
<path fill="none" stroke="black" d="M788.5,-475.61C788.5,-468.18 788.5,-459.08 788.5,-451.09"/>
<polygon fill="black" stroke="black" points="792,-451.16 788.5,-441.16 785,-451.16 792,-451.16"/>
</g>
<!-- 2207071794368 -->
<g id="node25" class="node">
<title>2207071794368</title>
<polygon fill="lightgrey" stroke="black" points="958,-440 857,-440 857,-421 958,-421 958,-440"/>
<text text-anchor="middle" x="907.5" y="-428" font-family="monospace" font-size="10.00">AccumulateGrad</text>
</g>
<!-- 2207071794368&#45;&gt;2207071793600 -->
<g id="edge23" class="edge">
<title>2207071794368&#45;&gt;2207071793600</title>
<path fill="none" stroke="black" d="M856.73,-421.96C795.06,-412.81 690.67,-397.31 621.17,-386.99"/>
<polygon fill="black" stroke="black" points="621.73,-383.39 611.33,-385.38 620.7,-390.31 621.73,-383.39"/>
</g>
<!-- 2206874334048 -->
<g id="node26" class="node">
<title>2206874334048</title>
<polygon fill="lightblue" stroke="black" points="934.5,-507 880.5,-507 880.5,-476 934.5,-476 934.5,-507"/>
<text text-anchor="middle" x="907.5" y="-483" font-family="monospace" font-size="10.00"> (400)</text>
</g>
<!-- 2206874334048&#45;&gt;2207071794368 -->
<g id="edge24" class="edge">
<title>2206874334048&#45;&gt;2207071794368</title>
<path fill="none" stroke="black" d="M907.5,-475.61C907.5,-468.18 907.5,-459.08 907.5,-451.09"/>
<polygon fill="black" stroke="black" points="911,-451.16 907.5,-441.16 904,-451.16 911,-451.16"/>
</g>
<!-- 2207071793408 -->
<g id="node27" class="node">
<title>2207071793408</title>
<polygon fill="lightgrey" stroke="black" points="1077,-440 976,-440 976,-421 1077,-421 1077,-440"/>
<text text-anchor="middle" x="1026.5" y="-428" font-family="monospace" font-size="10.00">AccumulateGrad</text>
</g>
<!-- 2207071793408&#45;&gt;2207071793600 -->
<g id="edge25" class="edge">
<title>2207071793408&#45;&gt;2207071793600</title>
<path fill="none" stroke="black" d="M975.67,-422.06C972.91,-421.69 970.17,-421.33 967.5,-421 845.99,-405.77 704.14,-391.34 621.13,-383.24"/>
<polygon fill="black" stroke="black" points="621.6,-379.67 611.31,-382.19 620.93,-386.64 621.6,-379.67"/>
</g>
<!-- 2206874333568 -->
<g id="node28" class="node">
<title>2206874333568</title>
<polygon fill="lightblue" stroke="black" points="1053.5,-507 999.5,-507 999.5,-476 1053.5,-476 1053.5,-507"/>
<text text-anchor="middle" x="1026.5" y="-483" font-family="monospace" font-size="10.00"> (400)</text>
</g>
<!-- 2206874333568&#45;&gt;2207071793408 -->
<g id="edge26" class="edge">
<title>2206874333568&#45;&gt;2207071793408</title>
<path fill="none" stroke="black" d="M1026.5,-475.61C1026.5,-468.18 1026.5,-459.08 1026.5,-451.09"/>
<polygon fill="black" stroke="black" points="1030,-451.16 1026.5,-441.16 1023,-451.16 1030,-451.16"/>
</g>
<!-- 2207092330992 -->
<g id="node29" class="node">
<title>2207092330992</title>
<polygon fill="lightgrey" stroke="black" points="707,-196 630,-196 630,-177 707,-177 707,-196"/>
<text text-anchor="middle" x="668.5" y="-184" font-family="monospace" font-size="10.00">TBackward0</text>
</g>
<!-- 2207092330992&#45;&gt;2207092331952 -->
<g id="edge27" class="edge">
<title>2207092330992&#45;&gt;2207092331952</title>
<path fill="none" stroke="black" d="M649.16,-176.51C631.12,-168.12 603.97,-155.5 583.36,-145.92"/>
<polygon fill="black" stroke="black" points="585.1,-142.4 574.55,-141.36 582.15,-148.75 585.1,-142.4"/>
</g>
<!-- 2207092334016 -->
<g id="node30" class="node">
<title>2207092334016</title>
<polygon fill="lightgrey" stroke="black" points="723,-257 622,-257 622,-238 723,-238 723,-257"/>
<text text-anchor="middle" x="672.5" y="-245" font-family="monospace" font-size="10.00">AccumulateGrad</text>
</g>
<!-- 2207092334016&#45;&gt;2207092330992 -->
<g id="edge28" class="edge">
<title>2207092334016&#45;&gt;2207092330992</title>
<path fill="none" stroke="black" d="M671.89,-237.54C671.35,-229.48 670.52,-217.35 669.83,-207.05"/>
<polygon fill="black" stroke="black" points="673.26,-206.9 669.09,-197.16 666.27,-207.37 673.26,-206.9"/>
</g>
<!-- 2206874333808 -->
<g id="node31" class="node">
<title>2206874333808</title>
<polygon fill="lightblue" stroke="black" points="708,-330 637,-330 637,-299 708,-299 708,-330"/>
<text text-anchor="middle" x="672.5" y="-306" font-family="monospace" font-size="10.00"> (5, 200)</text>
</g>
<!-- 2206874333808&#45;&gt;2207092334016 -->
<g id="edge29" class="edge">
<title>2206874333808&#45;&gt;2207092334016</title>
<path fill="none" stroke="black" d="M672.5,-298.75C672.5,-289.7 672.5,-277.99 672.5,-268.16"/>
<polygon fill="black" stroke="black" points="676,-268.39 672.5,-258.39 669,-268.39 676,-268.39"/>
</g>
</g>
</svg>
